# xmcd CD database file
#
# Track frame offsets:
#	150
#	13872
#	25776
#	37712
#	49161
#	62970
#	78351
#	90890
#	107473
#	122788
#	131880
#	152093
#	168898
#	184509
#	201260
#	216491
#	225919
#	239192
#	251337
#
# Disc length: 3606 seconds
#
# Revision: 0
# Processed by: cddbd v1.5.1PL0 Copyright (c) Steve Scherf et al.
# Submitted via: CDex 1.51
#
DISCID=f50e1413
DTITLE=Various Artist - Es Lo Maximo
DYEAR=1900
DGENRE=Merengue
TTITLE0=Intro 1 - DJPlay
TTITLE1=Ta'Encendio - Oro Sólido
TTITLE2=El Corral - Chico Malo
TTITLE3=Done Estan - Banda Chula
TTITLE4=La Testarunda - Oro Sólido
TTITLE5=Tiene Swin - K-Libre
TTITLE6=La Addiciton Manikkomio
TTITLE7=Sensual - Grupa Mania
TTITLE8=La Pela - Rico Mambo
TTITLE9=Intro 2 - DJPlay
TTITLE10=Linda Eh - Grupo Mania
TTITLE11=Tu Abuela - Cana Brava
TTITLE12=Te Voy a Olvidar - Frase Klave
TTITLE13=Abrazame - Ashley
TTITLE14=Que Buena - Grupo Mania
TTITLE15=Fuego - Grupo Mattizz
TTITLE16=Quue No Pare La Fiesta - Zafra Negra
TTITLE17=Pido Y Rezo - Blanco Y Negro
TTITLE18=La Noche - Elvis Crespo
EXTD=
EXTT0=
EXTT1=
EXTT2=
EXTT3=
EXTT4=
EXTT5=
EXTT6=
EXTT7=
EXTT8=
EXTT9=
EXTT10=
EXTT11=
EXTT12=
EXTT13=
EXTT14=
EXTT15=
EXTT16=
EXTT17=
EXTT18=
PLAYORDER=
